<svg width="139" height="23" viewBox="0 0 139 23" fill="none" xmlns="http://www.w3.org/2000/svg">
<path d="M4.884 3.998V6H7.722V9.3H4.884V17H1.584V9.3H0.55V6H1.584V3.998C1.584 3.30867 1.75267 2.68167 2.09 2.117C2.43467 1.545 2.893 1.09033 3.465 0.752999C4.037 0.408333 4.67133 0.235999 5.368 0.235999C5.874 0.235999 6.37633 0.342333 6.875 0.554999C7.37367 0.760332 7.81733 1.08667 8.206 1.534L5.83 3.866C5.79333 3.756 5.72733 3.67533 5.632 3.624C5.544 3.56533 5.456 3.536 5.368 3.536C5.236 3.536 5.12233 3.58 5.027 3.668C4.93167 3.756 4.884 3.866 4.884 3.998ZM10.4626 6H13.7626V17H10.4626V6ZM12.1346 4.856C11.6579 4.856 11.2582 4.69833 10.9356 4.383C10.6129 4.06767 10.4516 3.67533 10.4516 3.206C10.4516 2.744 10.6129 2.35533 10.9356 2.04C11.2582 1.71733 11.6542 1.556 12.1236 1.556C12.5856 1.556 12.9742 1.71733 13.2896 2.04C13.6122 2.35533 13.7736 2.744 13.7736 3.206C13.7736 3.67533 13.6159 4.06767 13.3006 4.383C12.9926 4.69833 12.6039 4.856 12.1346 4.856ZM27.5924 9.971V17H24.2924V10.895C24.2924 10.5503 24.208 10.2387 24.0394 9.96C23.8707 9.674 23.647 9.45033 23.3684 9.289C23.0897 9.12033 22.778 9.036 22.4334 9.036C22.0887 9.036 21.7734 9.12033 21.4874 9.289C21.2087 9.45033 20.985 9.674 20.8164 9.96C20.655 10.2387 20.5744 10.5503 20.5744 10.895V17H17.2744L17.2634 6H20.5634L20.5744 6.693C20.941 6.37767 21.359 6.132 21.8284 5.956C22.2977 5.78 22.7927 5.692 23.3134 5.692C24.1054 5.692 24.824 5.88633 25.4694 6.275C26.1147 6.65633 26.628 7.16967 27.0094 7.815C27.398 8.46033 27.5924 9.179 27.5924 9.971ZM38.4939 0.499999H41.7939V17H38.4939V15.988C38.1566 16.3693 37.7532 16.681 37.2839 16.923C36.8219 17.165 36.2939 17.286 35.6999 17.286C34.9006 17.286 34.1526 17.1357 33.4559 16.835C32.7592 16.5343 32.1432 16.12 31.6079 15.592C31.0799 15.0567 30.6656 14.4407 30.3649 13.744C30.0642 13.0473 29.9139 12.2993 29.9139 11.5C29.9139 10.7007 30.0642 9.95267 30.3649 9.256C30.6656 8.55933 31.0799 7.947 31.6079 7.419C32.1432 6.88367 32.7592 6.46567 33.4559 6.165C34.1526 5.86433 34.9006 5.714 35.6999 5.714C36.2939 5.714 36.8219 5.835 37.2839 6.077C37.7532 6.31167 38.1566 6.62333 38.4939 7.012V0.499999ZM35.7439 14.118C36.1986 14.118 36.6129 14.0007 36.9869 13.766C37.3609 13.5313 37.6579 13.216 37.8779 12.82C38.0979 12.424 38.2079 11.984 38.2079 11.5C38.2079 11.016 38.0979 10.576 37.8779 10.18C37.6579 9.784 37.3609 9.46867 36.9869 9.234C36.6129 8.99933 36.1986 8.882 35.7439 8.882C35.2892 8.882 34.8749 8.99933 34.5009 9.234C34.1342 9.46867 33.8409 9.784 33.6209 10.18C33.4082 10.576 33.3019 11.016 33.3019 11.5C33.3019 11.984 33.4119 12.424 33.6319 12.82C33.8519 13.216 34.1452 13.5313 34.5119 13.766C34.8859 14.0007 35.2966 14.118 35.7439 14.118ZM45.4313 17V6H48.7313V6.693C49.098 6.37767 49.516 6.132 49.9853 5.956C50.4547 5.78 50.9497 5.692 51.4703 5.692C52.2037 5.692 52.8783 5.86067 53.4943 6.198C54.1103 6.528 54.609 6.97167 54.9903 7.529C55.379 6.97167 55.8777 6.528 56.4863 6.198C57.1023 5.86067 57.7733 5.692 58.4993 5.692C59.2913 5.692 60.01 5.88633 60.6553 6.275C61.3007 6.65633 61.814 7.16967 62.1953 7.815C62.584 8.46033 62.7783 9.179 62.7783 9.971V17H59.4783V10.895C59.4783 10.5503 59.394 10.2387 59.2253 9.96C59.0567 9.68133 58.833 9.45767 58.5543 9.289C58.2757 9.12033 57.964 9.036 57.6193 9.036C57.2747 9.036 56.9593 9.12033 56.6733 9.289C56.3947 9.45767 56.171 9.68133 56.0023 9.96C55.8337 10.2387 55.7493 10.5503 55.7493 10.895V17H52.4493V10.895C52.4493 10.5503 52.365 10.2387 52.1963 9.96C52.035 9.68133 51.8113 9.45767 51.5253 9.289C51.2467 9.12033 50.935 9.036 50.5903 9.036C50.253 9.036 49.9413 9.12033 49.6553 9.289C49.3767 9.45767 49.153 9.68133 48.9843 9.96C48.8157 10.2387 48.7313 10.5503 48.7313 10.895V17H45.4313ZM72.7547 6H76.2747L70.2467 22.5H66.7487L68.7287 17L64.7687 6H68.3767L70.3787 12.49L72.7547 6Z" fill="#181A20"/>
<path d="M81.7517 17.198C81.1943 17.1467 80.659 17.0257 80.1457 16.835C79.6323 16.6443 79.174 16.384 78.7707 16.054C78.3673 15.724 78.0483 15.3207 77.8137 14.844L80.5857 13.656C80.659 13.7367 80.7617 13.8393 80.8937 13.964C81.0257 14.0813 81.1907 14.1877 81.3887 14.283C81.594 14.3783 81.8397 14.426 82.1257 14.426C82.3163 14.426 82.4997 14.4077 82.6757 14.371C82.859 14.327 83.0057 14.2537 83.1157 14.151C83.233 14.0483 83.2917 13.9053 83.2917 13.722C83.2917 13.5167 83.2147 13.3627 83.0607 13.26C82.914 13.15 82.7343 13.073 82.5217 13.029C82.309 12.9777 82.111 12.9373 81.9277 12.908C81.275 12.8053 80.648 12.6 80.0467 12.292C79.4527 11.9767 78.965 11.5697 78.5837 11.071C78.2023 10.565 78.0117 9.97467 78.0117 9.3C78.0117 8.54467 78.206 7.892 78.5947 7.342C78.9833 6.792 79.4893 6.37033 80.1127 6.077C80.7433 5.77633 81.4217 5.626 82.1477 5.626C83.0057 5.626 83.7977 5.802 84.5237 6.154C85.257 6.506 85.8583 7.012 86.3277 7.672L83.7317 9.212C83.6437 9.102 83.5337 8.992 83.4017 8.882C83.277 8.76467 83.1303 8.66567 82.9617 8.585C82.8003 8.497 82.6243 8.442 82.4337 8.42C82.177 8.398 81.946 8.409 81.7407 8.453C81.5427 8.48967 81.385 8.57033 81.2677 8.695C81.1503 8.81233 81.0917 8.98467 81.0917 9.212C81.0917 9.42467 81.1943 9.57867 81.3997 9.674C81.605 9.76933 81.836 9.839 82.0927 9.883C82.3493 9.927 82.5583 9.97467 82.7197 10.026C83.3503 10.2313 83.9443 10.499 84.5017 10.829C85.059 11.159 85.5063 11.5587 85.8437 12.028C86.1883 12.4973 86.3497 13.0473 86.3277 13.678C86.3277 14.4113 86.1077 15.0567 85.6677 15.614C85.2277 16.1713 84.6593 16.593 83.9627 16.879C83.266 17.165 82.529 17.2713 81.7517 17.198ZM96.8489 6H100.149V17H96.8379L96.6839 16.01C96.4125 16.3913 96.0679 16.6993 95.6499 16.934C95.2392 17.1687 94.7589 17.286 94.2089 17.286C93.3875 17.286 92.6175 17.132 91.8989 16.824C91.1875 16.516 90.5605 16.0907 90.0179 15.548C89.4752 14.998 89.0499 14.3673 88.7419 13.656C88.4412 12.9373 88.2909 12.1673 88.2909 11.346C88.2909 10.5613 88.4339 9.828 88.7199 9.146C89.0059 8.464 89.4055 7.86633 89.9189 7.353C90.4395 6.83233 91.0372 6.42533 91.7119 6.132C92.3939 5.83867 93.1235 5.692 93.9009 5.692C94.5315 5.692 95.1035 5.824 95.6169 6.088C96.1375 6.34467 96.5995 6.66733 97.0029 7.056L96.8489 6ZM94.1209 14.118C94.5755 14.118 94.9899 14.0007 95.3639 13.766C95.7379 13.5313 96.0349 13.216 96.2549 12.82C96.4749 12.424 96.5849 11.984 96.5849 11.5C96.5849 11.016 96.4749 10.576 96.2549 10.18C96.0349 9.784 95.7379 9.46867 95.3639 9.234C94.9899 8.99933 94.5755 8.882 94.1209 8.882C93.6662 8.882 93.2519 8.99933 92.8779 9.234C92.5112 9.46867 92.2179 9.784 91.9979 10.18C91.7852 10.576 91.6789 11.016 91.6789 11.5C91.6789 11.984 91.7889 12.424 92.0089 12.82C92.2289 13.216 92.5222 13.5313 92.8889 13.766C93.2629 14.0007 93.6735 14.118 94.1209 14.118ZM102.917 13.007V6H106.217V12.083C106.217 12.4277 106.301 12.743 106.47 13.029C106.639 13.3077 106.862 13.5313 107.141 13.7C107.427 13.8613 107.739 13.942 108.076 13.942C108.421 13.942 108.732 13.8613 109.011 13.7C109.297 13.5313 109.521 13.3077 109.682 13.029C109.851 12.743 109.935 12.4277 109.935 12.083V6H113.235L113.246 17H109.946L109.935 16.285C109.568 16.6003 109.15 16.846 108.681 17.022C108.212 17.198 107.717 17.286 107.196 17.286C106.411 17.286 105.693 17.0953 105.04 16.714C104.395 16.3253 103.878 15.8083 103.489 15.163C103.108 14.5177 102.917 13.799 102.917 13.007ZM122.486 13.392L125.456 14.998C124.95 15.6873 124.316 16.241 123.553 16.659C122.791 17.077 121.958 17.286 121.056 17.286C120.044 17.286 119.12 17.0257 118.284 16.505C117.456 15.9843 116.792 15.2877 116.293 14.415C115.802 13.535 115.556 12.5633 115.556 11.5C115.556 10.6933 115.699 9.94167 115.985 9.245C116.271 8.541 116.664 7.925 117.162 7.397C117.668 6.86167 118.255 6.44367 118.922 6.143C119.59 5.84233 120.301 5.692 121.056 5.692C121.958 5.692 122.791 5.901 123.553 6.319C124.316 6.737 124.95 7.298 125.456 8.002L122.486 9.608C122.288 9.41 122.065 9.25967 121.815 9.157C121.573 9.047 121.32 8.992 121.056 8.992C120.638 8.992 120.264 9.10933 119.934 9.344C119.604 9.57867 119.34 9.88667 119.142 10.268C118.952 10.6493 118.856 11.06 118.856 11.5C118.856 11.9327 118.952 12.3397 119.142 12.721C119.34 13.095 119.604 13.3993 119.934 13.634C120.264 13.8687 120.638 13.986 121.056 13.986C121.32 13.986 121.573 13.9347 121.815 13.832C122.065 13.722 122.288 13.5753 122.486 13.392ZM132.82 17.286C131.808 17.286 130.884 17.0257 130.048 16.505C129.219 15.9843 128.556 15.284 128.057 14.404C127.566 13.524 127.32 12.5523 127.32 11.489C127.32 10.6897 127.463 9.94167 127.749 9.245C128.035 8.541 128.427 7.925 128.926 7.397C129.432 6.86167 130.019 6.44367 130.686 6.143C131.353 5.84233 132.065 5.692 132.82 5.692C133.7 5.692 134.503 5.88633 135.229 6.275C135.962 6.65633 136.578 7.177 137.077 7.837C137.583 8.48967 137.942 9.22667 138.155 10.048C138.368 10.8693 138.39 11.7163 138.221 12.589H130.884C130.987 12.8457 131.122 13.0803 131.291 13.293C131.467 13.4983 131.68 13.6633 131.929 13.788C132.186 13.9127 132.483 13.9787 132.82 13.986C133.143 13.9933 133.44 13.9237 133.711 13.777C133.99 13.6303 134.232 13.4323 134.437 13.183L137.803 13.964C137.356 14.9393 136.688 15.7387 135.801 16.362C134.914 16.978 133.92 17.286 132.82 17.286ZM130.763 10.169H134.888C134.785 9.85367 134.631 9.575 134.426 9.333C134.221 9.091 133.979 8.90033 133.7 8.761C133.429 8.62167 133.135 8.552 132.82 8.552C132.512 8.552 132.219 8.62167 131.94 8.761C131.669 8.90033 131.43 9.091 131.225 9.333C131.027 9.575 130.873 9.85367 130.763 10.169Z" fill="#E6700B"/>
</svg>
